<svg width="193" height="47" viewBox="0 0 193 47" fill="none" xmlns="http://www.w3.org/2000/svg">
<path d="M134.28 4.27788C134.858 2.97943 135.148 2.3302 135.551 2.13028C135.901 1.95658 136.312 1.95658 136.662 2.13028C137.065 2.3302 137.354 2.97943 137.933 4.27788L142.543 14.6202C142.714 15.0041 142.8 15.196 142.932 15.343C143.049 15.473 143.193 15.577 143.352 15.6482C143.533 15.7287 143.742 15.7508 144.16 15.7949L155.421 16.9834C156.835 17.1326 157.541 17.2072 157.856 17.5287C158.129 17.8079 158.256 18.1989 158.199 18.5855C158.134 19.0305 157.606 19.5063 156.55 20.458L148.138 28.0385C147.826 28.3197 147.67 28.4605 147.571 28.6318C147.484 28.7835 147.429 28.9517 147.411 29.1257C147.39 29.3225 147.433 29.528 147.521 29.9393L149.87 41.016C150.165 42.4067 150.313 43.102 150.104 43.5005C149.923 43.847 149.59 44.0885 149.205 44.1537C148.762 44.2287 148.146 43.8738 146.914 43.1635L137.106 37.506C136.742 37.296 136.56 37.1912 136.366 37.15C136.195 37.1137 136.018 37.1137 135.847 37.15C135.653 37.1912 135.471 37.296 135.107 37.506L125.298 43.1635C124.067 43.8738 123.451 44.2287 123.008 44.1537C122.623 44.0885 122.29 43.847 122.109 43.5005C121.9 43.102 122.048 42.4067 122.343 41.016L124.692 29.9393C124.779 29.528 124.823 29.3225 124.802 29.1257C124.784 28.9517 124.729 28.7835 124.642 28.6318C124.543 28.4605 124.387 28.3197 124.075 28.0385L115.663 20.458C114.607 19.5063 114.079 19.0305 114.013 18.5855C113.956 18.1989 114.083 17.8079 114.357 17.5287C114.671 17.2072 115.378 17.1326 116.792 16.9834L128.053 15.7949C128.471 15.7508 128.68 15.7287 128.86 15.6482C129.02 15.577 129.163 15.473 129.281 15.343C129.413 15.196 129.499 15.0041 129.67 14.6202L134.28 4.27788Z" stroke="#785E4D" stroke-width="4" stroke-linecap="round" stroke-linejoin="round"/>
<path d="M78.2797 4.27788C78.8584 2.97943 79.1479 2.3302 79.5509 2.13028C79.9009 1.95658 80.3119 1.95658 80.6619 2.13028C81.0649 2.3302 81.3544 2.97943 81.9332 4.27788L86.5432 14.6202C86.7144 15.0041 86.7999 15.196 86.9324 15.343C87.0494 15.473 87.1927 15.577 87.3524 15.6482C87.5332 15.7287 87.7422 15.7508 88.1602 15.7949L99.4209 16.9834C100.835 17.1326 101.541 17.2072 101.856 17.5287C102.129 17.8079 102.256 18.1989 102.199 18.5855C102.134 19.0305 101.606 19.5063 100.55 20.458L92.1382 28.0385C91.8262 28.3197 91.6699 28.4605 91.5712 28.6318C91.4837 28.7835 91.4289 28.9517 91.4107 29.1257C91.3899 29.3225 91.4334 29.528 91.5207 29.9393L93.8702 41.016C94.1652 42.4067 94.3127 43.102 94.1042 43.5005C93.9229 43.847 93.5904 44.0885 93.2052 44.1537C92.7617 44.2287 92.1459 43.8738 90.9144 43.1635L81.1057 37.506C80.7417 37.296 80.5597 37.1912 80.3662 37.15C80.1949 37.1137 80.0179 37.1137 79.8467 37.15C79.6532 37.1912 79.4712 37.296 79.1072 37.506L69.2985 43.1635C68.067 43.8738 67.4513 44.2287 67.0078 44.1537C66.6225 44.0885 66.2899 43.847 66.1088 43.5005C65.9003 43.102 66.0478 42.4067 66.3428 41.016L68.6922 29.9393C68.7794 29.528 68.823 29.3225 68.8023 29.1257C68.784 28.9517 68.7293 28.7835 68.6418 28.6318C68.5429 28.4605 68.3868 28.3197 68.0746 28.0385L59.6631 20.458C58.6071 19.5063 58.079 19.0305 58.0134 18.5855C57.9564 18.1989 58.0834 17.8079 58.3568 17.5287C58.6715 17.2072 59.3783 17.1326 60.7921 16.9834L72.0528 15.7949C72.4708 15.7508 72.6797 15.7287 72.8604 15.6482C73.0203 15.577 73.1634 15.473 73.2806 15.343C73.413 15.196 73.4985 15.0041 73.6696 14.6202L78.2797 4.27788Z" stroke="#785E4D" stroke-width="4" stroke-linecap="round" stroke-linejoin="round"/>
<path d="M22.2797 4.27788C22.8584 2.97943 23.1479 2.3302 23.5509 2.13028C23.9009 1.95658 24.3119 1.95658 24.6619 2.13028C25.0649 2.3302 25.3544 2.97943 25.9332 4.27788L30.5432 14.6202C30.7144 15.0041 30.7999 15.196 30.9324 15.343C31.0494 15.473 31.1927 15.577 31.3524 15.6482C31.5332 15.7287 31.7422 15.7508 32.1602 15.7949L43.4209 16.9834C44.8347 17.1326 45.5414 17.2072 45.8562 17.5287C46.1294 17.8079 46.2564 18.1989 46.1994 18.5855C46.1339 19.0305 45.6059 19.5063 44.5499 20.458L36.1382 28.0385C35.8262 28.3197 35.6699 28.4605 35.5712 28.6318C35.4837 28.7835 35.4289 28.9517 35.4107 29.1257C35.3899 29.3225 35.4334 29.528 35.5207 29.9393L37.8702 41.016C38.1652 42.4067 38.3127 43.102 38.1042 43.5005C37.9229 43.847 37.5904 44.0885 37.2052 44.1537C36.7617 44.2287 36.1459 43.8738 34.9144 43.1635L25.1057 37.506C24.7417 37.296 24.5597 37.1912 24.3662 37.15C24.1949 37.1137 24.0179 37.1137 23.8467 37.15C23.6532 37.1912 23.4712 37.296 23.1072 37.506L13.2985 43.1635C12.067 43.8738 11.4513 44.2287 11.0078 44.1537C10.6225 44.0885 10.2899 43.847 10.1088 43.5005C9.90034 43.102 10.0478 42.4067 10.3428 41.016L12.6922 29.9393C12.7794 29.528 12.823 29.3225 12.8023 29.1257C12.784 28.9517 12.7293 28.7835 12.6418 28.6318C12.5429 28.4605 12.3868 28.3197 12.0746 28.0385L3.66308 20.458C2.60706 19.5063 2.07903 19.0305 2.01338 18.5855C1.95638 18.1989 2.08341 17.8079 2.35676 17.5287C2.67146 17.2072 3.37833 17.1326 4.79208 16.9834L16.0528 15.7949C16.4708 15.7508 16.6797 15.7287 16.8604 15.6482C17.0203 15.577 17.1634 15.473 17.2806 15.343C17.413 15.196 17.4985 15.0041 17.6696 14.6202L22.2797 4.27788Z" stroke="#785E4D" stroke-width="4" stroke-linecap="round" stroke-linejoin="round"/>
<path d="M180.98 42.447L190.217 36.0193V5.13836C190.217 4.47151 190.217 4.13803 190.133 4.06348C190.062 3.99951 189.96 3.98226 189.871 4.01918C189.767 4.06216 189.658 4.37713 189.439 5.00703L185.09 17.5192C184.925 17.993 184.843 18.2299 184.694 18.4063C184.563 18.5622 184.396 18.6836 184.207 18.7602C183.994 18.8468 183.743 18.8519 183.241 18.8621L173.382 19.063C171.62 19.099 170.739 19.1168 170.387 19.4525C170.083 19.743 169.945 20.167 170.02 20.581C170.107 21.059 170.81 21.5915 172.214 22.6563L180.073 28.6143C180.472 28.9173 180.672 29.0688 180.794 29.2645C180.902 29.4373 180.966 29.6338 180.98 29.837C180.997 30.067 180.924 30.307 180.779 30.787L177.923 40.2263C177.413 41.9133 177.157 42.7568 177.368 43.195C177.55 43.574 177.911 43.8363 178.328 43.8923C178.81 43.9573 179.533 43.4538 180.98 42.447Z" stroke="#785E4D" stroke-width="4" stroke-linecap="round" stroke-linejoin="round"/>
</svg>
